# xmcd
#
# Track frame offsets:
#	150
#	17830
#	43106
#	63243
#	94822
#	113605
#	135198
#	155304
#
# Disc length: 2421 seconds
#
# Revision: 33
# Processed by: cddbd v1.5.2PL0 Copyright (c) Steve Scherf et al.
# Submitted via: Jack! The Knife 20 Magnifico
#
DISCID=59097308
DTITLE=Black Sabbath - Heaven And Hell
DYEAR=1980
DGENRE=Metal
TTITLE0=Neon Knights
TTITLE1=Children Of The Sea
TTITLE2=Lady Evil
TTITLE3=Heaven And Hell
TTITLE4=Wishing Well
TTITLE5=Die Young
TTITLE6=Walk Away
TTITLE7=Lonely Is The Word
EXTD=Martin Birch
EXTT0=Butler, Dio, Iommi, Ward
EXTT1=Butler, Dio, Iommi, Ward
EXTT2=Butler, Dio, Iommi, Ward
EXTT3=Butler, Dio, Iommi, Ward
EXTT4=Butler, Dio, Iommi, Ward
EXTT5=Butler, Dio, Iommi, Ward
EXTT6=Butler, Dio, Iommi, Ward
EXTT7=Butler, Dio, Iommi, Ward
PLAYORDER=
